<?xml version="1.0" encoding="utf-8"?>
<!-- Generator: Adobe Illustrator 27.0.0, SVG Export Plug-In . SVG Version: 6.00 Build 0)  -->
<svg version="1.1" id="Capa_1" xmlns="http://www.w3.org/2000/svg" xmlns:xlink="http://www.w3.org/1999/xlink" x="0px" y="0px"
	 viewBox="0 0 52.7 51.3" style="enable-background:new 0 0 52.7 51.3;" xml:space="preserve">
<style type="text/css">
	.st0{fill:#FFFFFF;}
</style>
<path d="M33.3,40.2c-3.8,0-7.5,0-11.3,0c1.7,1.7,2.5,3.6,2.1,5.9c-0.3,1.5-1,2.8-2.2,3.7c-2.5,2-6,1.9-8.3-0.4
	c-1.3-1.3-1.9-2.8-1.9-4.7c0-1.5,0.3-2.1,2.2-4.6c-3.3-0.3-5.6-1.9-6.2-5.3c-0.5-2.7,0.7-4.9,3.7-6.8c-1.6-8-3.2-15.9-4.8-24
	c-2.2,0-4.3,0-6.5,0C0,2.8,0,1.4,0,0c0.2,0,0.4,0,0.6,0c2.9,0,5.8,0,8.8,0c0.5,0,0.7,0.2,0.8,0.7c0.7,3.5,1.4,6.9,2.1,10.4
	c13.5,0,26.9,0,40.5,0c-0.7,2-1.3,4-2,5.9c-1.6,4.8-3.2,9.5-4.7,14.3c-0.2,0.5-0.4,0.6-0.9,0.6c-10.3,0-20.6,0-30.9,0
	c-0.6,0-1.2,0-1.8,0.5c-0.6,0.6-0.9,1.3-0.7,2c0.2,0.8,0.7,1.3,1.5,1.5c0.3,0.1,0.7,0.1,1,0.1c10.4,0,20.7,0,31.1,0
	c0.3,0,0.6,0,0.9,0c0,1.4,0,2.7,0,4.1c-1.6,0-3.2,0-5,0c1.7,1.6,2.5,3.4,2.2,5.6c-0.2,1.6-1,3-2.2,4c-2.4,2-6,1.9-8.3-0.3
	C30.4,47,30.5,43.8,33.3,40.2z M13,15.3c0.8,4.2,1.7,8.3,2.5,12.4c0.2,0,0.3,0,0.5,0c8.8,0,17.5,0,26.3,0c0.4,0,0.6-0.2,0.7-0.6
	c1.2-3.8,2.5-7.5,3.8-11.3c0.1-0.2,0.1-0.4,0.2-0.6C35.6,15.3,24.3,15.3,13,15.3z M39.4,45c0-1.1-0.9-2.1-2.1-2.1
	c-1.1,0-2.1,0.9-2.1,2c0,1.1,0.9,2.1,2.1,2.1C38.5,47.1,39.4,46.1,39.4,45z M15.9,45c0,1.1,0.9,2.1,2,2.1c1.1,0,2.1-1,2.1-2.1
	c0-1.1-1-2.1-2.1-2.1C16.8,42.9,15.9,43.9,15.9,45z"/>
<path d="M29.7,4.8c0-1.9,0-3.6,0-5.5c1.4,0,2.7,0,4.1,0c0,1.8,0,3.6,0,5.5C32.4,4.8,31.1,4.8,29.7,4.8z"/>
<path d="M23,0.8c0.8,1.7,1.6,3.3,2.4,5c-1.3,0.6-2.5,1.2-3.7,1.8c-0.8-1.7-1.6-3.3-2.4-5C20.5,2,21.7,1.4,23,0.8z"/>
<path d="M42,7.6c-1.3-0.6-2.5-1.2-3.7-1.8c0.8-1.7,1.6-3.3,2.4-5c1.3,0.6,2.5,1.2,3.8,1.8C43.5,4.3,42.8,5.9,42,7.6z"/>
<path class="st0" d="M13,15.3c11.3,0,22.6,0,33.9,0c-0.1,0.2-0.1,0.4-0.2,0.6c-1.3,3.8-2.5,7.5-3.8,11.3c-0.1,0.4-0.3,0.6-0.7,0.6
	c-8.8,0-17.5,0-26.3,0c-0.1,0-0.3,0-0.5,0C14.7,23.6,13.8,19.5,13,15.3z"/>
<path class="st0" d="M39.4,45c0,1.1-0.9,2.1-2.1,2.1c-1.1,0-2.1-1-2.1-2.1c0-1.1,1-2.1,2.1-2C38.5,43,39.4,43.9,39.4,45z"/>
<path class="st0" d="M15.9,45c0-1.1,0.9-2.1,2.1-2.1c1.1,0,2.1,1,2.1,2.1c0,1.1-1,2.1-2.1,2.1C16.8,47.1,15.9,46.1,15.9,45z"/>
</svg>
